# xmcd CD database file
#
# Track frame offsets:
#	150
#	22765
#	40849
#	65426
#	82193
#	102011
#	118690
#	139197
#	166604
#	198689
#	223599
#	247001
#	274499
#	289768
#
# Disc length: 4201 seconds
#
# Revision: 1
# Processed by: cddbd v1.5.2PL0 Copyright (c) Steve Scherf et al.
# Submitted via: CDex 1.70beta2
#
DISCID=ce10670e
DTITLE=Various Artist - Sea Of Silence Vol. 6, CD 2
DYEAR=2007
DGENRE=New Age
TTITLE0=Channel 2 feat. Tanya - Space Cowboy
TTITLE1=SDL - End Of Season
TTITLE2=Just Arrived - Planet Unkown
TTITLE3=Core - Sea Of Sand
TTITLE4=Cosmic Enemy - Open Eyes
TTITLE5=Makena Mansion - Laidback
TTITLE6=Manny Martin - L.A. Sunset
TTITLE7=Sharion - Lazy Night In June
TTITLE8=Leman's Guests - Chillin' Journey
TTITLE9=Santo Estarga - Flowing Time
TTITLE10=Sambokarish - Warm Rain
TTITLE11=Trish Dew - For What We Know
TTITLE12=Sinner In Love - Try To Sleep
TTITLE13=Rowee Dew - Red Stone
EXTD=YEAR: 2007
EXTT0=
EXTT1=
EXTT2=
EXTT3=
EXTT4=
EXTT5=
EXTT6=
EXTT7=
EXTT8=
EXTT9=
EXTT10=
EXTT11=
EXTT12=
EXTT13=
PLAYORDER=
